<?xml version="1.0" encoding="UTF-8"?>
<svg xmlns="http://www.w3.org/2000/svg" width="33" height="38" viewBox="0 0 33 38" fill="none">
  <g id="Frame 36631">
    <g id="Vector">
      <path d="M0.0282875 12.7387H32.077V13.2535C32.077 19.0778 32.0496 24.9022 32.0929 30.7256C32.1062 32.5547 30.5328 33.7851 29.0744 33.9673C28.8545 33.9895 28.6333 33.9981 28.4123 33.9929C19.9268 33.9929 11.4413 33.9953 2.95579 34C1.75279 34 0.813194 33.594 0.322625 32.4583C0.128207 32.0133 0.0236705 31.5341 0.0150268 31.0485C-0.00530312 25.018 0.000886608 18.9876 0.000886608 12.9571C0.00353833 12.8997 0.0159128 12.8448 0.0282875 12.7387ZM23.6843 29.5059C24.0671 29.5059 24.4498 29.5183 24.8334 29.5059C25.4247 29.4829 25.666 29.2503 25.6784 28.6621C25.6961 27.8667 25.6961 27.0706 25.6784 26.274C25.6678 25.7203 25.3832 25.4222 24.8325 25.4072C24.0388 25.386 23.2433 25.386 22.446 25.4072C21.8891 25.4213 21.5983 25.7079 21.5833 26.2634C21.5626 27.0577 21.5626 27.8537 21.5833 28.6515C21.5974 29.2008 21.8962 29.4847 22.446 29.5077C22.8596 29.5192 23.2724 29.505 23.6843 29.5059ZM17.6852 27.5026C17.6852 27.0904 17.6914 26.6782 17.6852 26.2643C17.6737 25.7336 17.4095 25.4258 16.8809 25.409C16.058 25.3815 15.2324 25.3824 14.4059 25.409C13.8968 25.4249 13.6104 25.7309 13.6051 26.2236C13.5939 27.0491 13.5939 27.8746 13.6051 28.7001C13.6113 29.1574 13.8774 29.4723 14.3308 29.4873C15.2147 29.5165 16.0986 29.5148 16.9772 29.4873C17.4333 29.4732 17.6623 29.199 17.6773 28.7417C17.6958 28.3278 17.6852 27.9147 17.6852 27.5026ZM23.6313 20.5063H24.8688C25.3991 20.4797 25.6643 20.2533 25.674 19.7182C25.6964 18.8927 25.6964 18.0686 25.674 17.246C25.6607 16.6959 25.3858 16.4411 24.8396 16.4341C24.0441 16.4235 23.2486 16.4252 22.453 16.4341C21.8979 16.4394 21.5965 16.7092 21.5815 17.262C21.5603 18.0713 21.5585 18.8815 21.5815 19.6899C21.5992 20.2206 21.905 20.4859 22.4327 20.5054C22.842 20.5151 23.2344 20.5063 23.6313 20.5063ZM7.7395 25.4019C7.34174 25.4019 6.94398 25.3842 6.54623 25.4019C6.00793 25.432 5.73922 25.7141 5.73303 26.2466C5.7236 27.0426 5.7236 27.8386 5.73303 28.6347C5.73922 29.2052 5.9982 29.4811 6.57009 29.4962C7.33614 29.5156 8.1022 29.5156 8.86825 29.4962C9.46931 29.4811 9.79017 29.1468 9.79989 28.5489C9.81138 27.7971 9.80873 27.0453 9.79989 26.2926C9.79282 25.7159 9.51262 25.4258 8.93278 25.4001C8.5359 25.3869 8.13726 25.401 7.7395 25.4019ZM15.6575 16.4314H14.5085C14.4793 16.4314 14.4501 16.4314 14.4201 16.4314C13.9012 16.4526 13.6166 16.7118 13.6086 17.2186C13.5945 18.043 13.5963 18.8682 13.6086 19.6952C13.6157 20.1693 13.903 20.4912 14.3688 20.4992C15.2362 20.5192 16.1039 20.5192 16.9719 20.4992C17.4201 20.4877 17.672 20.2135 17.6791 19.7615C17.6926 18.9083 17.6926 18.0533 17.6791 17.1965C17.6711 16.718 17.3838 16.45 16.8915 16.435C16.4778 16.4217 16.0694 16.4314 15.6575 16.4314ZM7.77928 16.4314H6.54181C5.99202 16.4535 5.73922 16.6968 5.73214 17.2602C5.72272 18.0562 5.72272 18.8523 5.73214 19.6483C5.73833 20.2126 6.01234 20.4948 6.57274 20.5036C7.3388 20.516 8.10485 20.516 8.8709 20.5036C9.44279 20.4948 9.78663 20.1657 9.79812 19.6005C9.81403 18.8045 9.81403 18.0085 9.79812 17.2124C9.7884 16.7224 9.50555 16.4518 9.0194 16.4358C8.60485 16.4208 8.19206 16.4323 7.77928 16.4323V16.4314Z" fill="#FF5C39"></path>
      <path d="M7.60514 4.05478H23.5897C23.5897 5.05514 23.5809 6.02454 23.5897 6.99394C23.5995 7.7369 24.3216 8.22072 24.9722 7.92796C25.392 7.73868 25.5777 7.39108 25.5768 6.93557C25.5768 6.13953 25.5768 5.34349 25.5768 4.54745C25.5768 4.38913 25.5768 4.23079 25.5768 4.00436C26.991 4.12731 28.3682 3.80005 29.7055 4.23345C31.1613 4.70577 31.986 5.86798 31.9869 7.38841V10.5885H0.0371226C0.0195214 10.4873 0.00830261 10.3851 0.00353369 10.2825C0.0256314 8.98668 -0.0132606 7.68649 0.0919245 6.39779C0.19711 5.13828 1.21979 3.94777 2.83204 4.01676C3.72744 4.05479 4.62461 4.02382 5.57216 4.02382C5.58276 4.20956 5.59956 4.36524 5.59956 4.52003C5.59956 5.31606 5.59249 6.1121 5.60574 6.90814C5.61724 7.57239 6.03886 8.01906 6.61517 8.01198C7.19147 8.00491 7.59542 7.55471 7.59896 6.88957C7.6078 5.96086 7.60514 5.03391 7.60514 4.05478Z" fill="#FF5C39"></path>
    </g>
  </g>
</svg>
